<svg width="746" height="175" viewBox="0 0 746 175" fill="none" xmlns="http://www.w3.org/2000/svg">
<g clip-path="url(#clip0_1_2)">
<rect x="341" y="1" width="113" height="23" rx="11.5" fill="#1DB954"/>
<path d="M397 31L384.876 21.25L409.124 21.25L397 31Z" fill="#1DB954"/>
<path d="M358.164 9.79403V8.27273H365.332V9.79403H362.66V17H360.836V9.79403H358.164ZM374.134 12.6364C374.134 13.5881 373.953 14.3977 373.593 15.0653C373.235 15.733 372.746 16.2429 372.127 16.5952C371.51 16.9446 370.817 17.1193 370.047 17.1193C369.272 17.1193 368.576 16.9432 367.959 16.5909C367.343 16.2386 366.855 15.7287 366.498 15.0611C366.14 14.3935 365.961 13.5852 365.961 12.6364C365.961 11.6847 366.14 10.875 366.498 10.2074C366.855 9.53977 367.343 9.03125 367.959 8.68182C368.576 8.32955 369.272 8.15341 370.047 8.15341C370.817 8.15341 371.51 8.32955 372.127 8.68182C372.746 9.03125 373.235 9.53977 373.593 10.2074C373.953 10.875 374.134 11.6847 374.134 12.6364ZM372.263 12.6364C372.263 12.0199 372.171 11.5 371.986 11.0767C371.804 10.6534 371.547 10.3324 371.215 10.1136C370.882 9.89489 370.493 9.78551 370.047 9.78551C369.601 9.78551 369.212 9.89489 368.88 10.1136C368.547 10.3324 368.289 10.6534 368.104 11.0767C367.922 11.5 367.831 12.0199 367.831 12.6364C367.831 13.2528 367.922 13.7727 368.104 14.196C368.289 14.6193 368.547 14.9403 368.88 15.1591C369.212 15.3778 369.601 15.4872 370.047 15.4872C370.493 15.4872 370.882 15.3778 371.215 15.1591C371.547 14.9403 371.804 14.6193 371.986 14.196C372.171 13.7727 372.263 13.2528 372.263 12.6364ZM375.501 17V8.27273H378.944C379.606 8.27273 380.17 8.39915 380.636 8.65199C381.102 8.90199 381.457 9.25 381.701 9.69602C381.948 10.1392 382.072 10.6506 382.072 11.2301C382.072 11.8097 381.947 12.321 381.697 12.7642C381.447 13.2074 381.085 13.5526 380.61 13.7997C380.138 14.0469 379.567 14.1705 378.897 14.1705H376.702V12.6918H378.599C378.954 12.6918 379.246 12.6307 379.477 12.5085C379.71 12.3835 379.883 12.2116 379.996 11.9929C380.113 11.7713 380.171 11.517 380.171 11.2301C380.171 10.9403 380.113 10.6875 379.996 10.4716C379.883 10.2528 379.71 10.0838 379.477 9.96449C379.244 9.84233 378.948 9.78125 378.59 9.78125H377.346V17H375.501ZM387.552 17H385.575L388.587 8.27273H390.965L393.974 17H391.996L389.81 10.267H389.742L387.552 17ZM387.428 13.5696H392.099V15.0099H387.428V13.5696ZM395.024 17V8.27273H398.467C399.126 8.27273 399.689 8.39062 400.155 8.62642C400.624 8.85937 400.98 9.19034 401.224 9.61932C401.472 10.0455 401.595 10.5469 401.595 11.1236C401.595 11.7031 401.47 12.2017 401.22 12.6193C400.97 13.0341 400.608 13.3523 400.134 13.5739C399.662 13.7955 399.091 13.9062 398.42 13.9062H396.115V12.4233H398.122C398.474 12.4233 398.767 12.375 399 12.2784C399.233 12.1818 399.406 12.0369 399.52 11.8438C399.636 11.6506 399.695 11.4105 399.695 11.1236C399.695 10.8338 399.636 10.5895 399.52 10.3906C399.406 10.1918 399.232 10.0412 398.996 9.93892C398.763 9.83381 398.469 9.78125 398.114 9.78125H396.869V17H395.024ZM399.737 13.0284L401.906 17H399.869L397.747 13.0284H399.737ZM402.567 9.79403V8.27273H409.734V9.79403H407.062V17H405.239V9.79403H402.567ZM412.76 8.27273V17H410.915V8.27273H412.76ZM419.012 10.7827C418.978 10.4389 418.832 10.1719 418.574 9.98153C418.315 9.79119 417.964 9.69602 417.521 9.69602C417.22 9.69602 416.966 9.73864 416.758 9.82386C416.551 9.90625 416.392 10.0213 416.281 10.169C416.173 10.3168 416.119 10.4844 416.119 10.6719C416.113 10.8281 416.146 10.9645 416.217 11.081C416.291 11.1974 416.392 11.2983 416.52 11.3835C416.647 11.4659 416.795 11.5384 416.963 11.6009C417.13 11.6605 417.309 11.7116 417.5 11.7543L418.284 11.9418C418.664 12.027 419.014 12.1406 419.332 12.2827C419.65 12.4247 419.926 12.5994 420.159 12.8068C420.392 13.0142 420.572 13.2585 420.7 13.5398C420.831 13.821 420.897 14.1435 420.9 14.5071C420.897 15.0412 420.761 15.5043 420.491 15.8963C420.224 16.2855 419.838 16.5881 419.332 16.804C418.829 17.017 418.223 17.1236 417.512 17.1236C416.808 17.1236 416.194 17.0156 415.672 16.7997C415.152 16.5838 414.745 16.2642 414.453 15.8409C414.163 15.4148 414.011 14.8878 413.997 14.2599H415.782C415.802 14.5526 415.886 14.7969 416.034 14.9929C416.184 15.1861 416.385 15.3324 416.635 15.4318C416.887 15.5284 417.173 15.5767 417.491 15.5767C417.804 15.5767 418.075 15.5312 418.305 15.4403C418.538 15.3494 418.718 15.223 418.846 15.0611C418.974 14.8991 419.038 14.7131 419.038 14.5028C419.038 14.3068 418.98 14.142 418.863 14.0085C418.75 13.875 418.582 13.7614 418.36 13.6676C418.142 13.5739 417.873 13.4886 417.555 13.4119L416.605 13.1733C415.869 12.9943 415.288 12.7145 414.862 12.3338C414.436 11.9531 414.224 11.4403 414.227 10.7955C414.224 10.267 414.365 9.8054 414.649 9.41051C414.936 9.01562 415.329 8.70739 415.829 8.4858C416.329 8.2642 416.897 8.15341 417.534 8.15341C418.181 8.15341 418.747 8.2642 419.23 8.4858C419.716 8.70739 420.093 9.01562 420.363 9.41051C420.633 9.8054 420.772 10.2628 420.781 10.7827H419.012ZM421.809 9.79403V8.27273H428.977V9.79403H426.305V17H424.481V9.79403H421.809ZM434.891 10.7827C434.857 10.4389 434.711 10.1719 434.452 9.98153C434.194 9.79119 433.843 9.69602 433.4 9.69602C433.099 9.69602 432.844 9.73864 432.637 9.82386C432.43 9.90625 432.271 10.0213 432.16 10.169C432.052 10.3168 431.998 10.4844 431.998 10.6719C431.992 10.8281 432.025 10.9645 432.096 11.081C432.17 11.1974 432.271 11.2983 432.398 11.3835C432.526 11.4659 432.674 11.5384 432.842 11.6009C433.009 11.6605 433.188 11.7116 433.379 11.7543L434.163 11.9418C434.543 12.027 434.893 12.1406 435.211 12.2827C435.529 12.4247 435.805 12.5994 436.038 12.8068C436.271 13.0142 436.451 13.2585 436.579 13.5398C436.71 13.821 436.776 14.1435 436.779 14.5071C436.776 15.0412 436.64 15.5043 436.37 15.8963C436.103 16.2855 435.717 16.5881 435.211 16.804C434.708 17.017 434.102 17.1236 433.391 17.1236C432.687 17.1236 432.073 17.0156 431.55 16.7997C431.031 16.5838 430.624 16.2642 430.332 15.8409C430.042 15.4148 429.89 14.8878 429.876 14.2599H431.661C431.681 14.5526 431.765 14.7969 431.913 14.9929C432.063 15.1861 432.263 15.3324 432.513 15.4318C432.766 15.5284 433.052 15.5767 433.37 15.5767C433.683 15.5767 433.954 15.5312 434.184 15.4403C434.417 15.3494 434.597 15.223 434.725 15.0611C434.853 14.8991 434.917 14.7131 434.917 14.5028C434.917 14.3068 434.859 14.142 434.742 14.0085C434.629 13.875 434.461 13.7614 434.239 13.6676C434.021 13.5739 433.752 13.4886 433.434 13.4119L432.484 13.1733C431.748 12.9943 431.167 12.7145 430.741 12.3338C430.315 11.9531 430.103 11.4403 430.106 10.7955C430.103 10.267 430.244 9.8054 430.528 9.41051C430.815 9.01562 431.208 8.70739 431.708 8.4858C432.208 8.2642 432.776 8.15341 433.413 8.15341C434.06 8.15341 434.626 8.2642 435.109 8.4858C435.594 8.70739 435.972 9.01562 436.242 9.41051C436.512 9.8054 436.651 10.2628 436.66 10.7827H434.891Z" fill="white"/>
<path opacity="0.1" fill-rule="evenodd" clip-rule="evenodd" d="M22 143C23.6569 143 25 144.327 25 145.964L25 390.036C25 391.673 23.6568 393 22 393C20.3431 393 19 391.673 19 390.036L19 145.964C19 144.327 20.3432 143 22 143Z" fill="black"/>
<path opacity="0.9" fill-rule="evenodd" clip-rule="evenodd" d="M126 143C127.657 143 129 144.343 129 146L129 393C129 394.657 127.657 396 126 396C124.343 396 123 394.657 123 393L123 146C123 144.343 124.343 143 126 143Z" fill="black"/>
<path opacity="0.5" fill-rule="evenodd" clip-rule="evenodd" d="M74 143C75.6569 143 77 144.343 77 146L77 393C77 394.657 75.6568 396 74 396C72.3431 396 71 394.657 71 393L71 146C71 144.343 72.3431 143 74 143Z" fill="black"/>
<path fill-rule="evenodd" clip-rule="evenodd" d="M178 142C179.657 142 181 143.343 181 145L181 399C181 400.657 179.657 402 178 402C176.343 402 175 400.657 175 399L175 145C175 143.343 176.343 142 178 142Z" fill="black"/>
<path opacity="0.3" fill-rule="evenodd" clip-rule="evenodd" d="M48 143C49.6569 143 51 144.343 51 146L51 393C51 394.657 49.6568 396 48 396C46.3431 396 45 394.657 45 393L45 146C45 144.343 46.3431 143 48 143Z" fill="black"/>
<path fill-rule="evenodd" clip-rule="evenodd" d="M152 143C153.657 143 155 144.343 155 146L155 393C155 394.657 153.657 396 152 396C150.343 396 149 394.657 149 393L149 146C149 144.343 150.343 143 152 143Z" fill="black"/>
<path opacity="0.7" fill-rule="evenodd" clip-rule="evenodd" d="M100 143C101.657 143 103 144.343 103 146L103 393C103 394.657 101.657 396 100 396C98.3431 396 97 394.657 97 393L97 146C97 144.343 98.3431 143 100 143Z" fill="black"/>
<path fill-rule="evenodd" clip-rule="evenodd" d="M204 142C205.657 142 207 143.343 207 145L207 399C207 400.657 205.657 402 204 402C202.343 402 201 400.657 201 399L201 145C201 143.343 202.343 142 204 142Z" fill="black"/>
<path fill-rule="evenodd" clip-rule="evenodd" d="M230 138C231.657 138 233 139.343 233 141L233 395C233 396.657 231.657 398 230 398C228.343 398 227 396.657 227 395L227 141C227 139.343 228.343 138 230 138Z" fill="black"/>
<path fill-rule="evenodd" clip-rule="evenodd" d="M577 121C575.343 121 574 122.343 574 124L574 378C574 379.657 575.343 381 577 381C578.657 381 580 379.657 580 378L580 124C580 122.343 578.657 121 577 121Z" fill="black"/>
<path opacity="0.2" fill-rule="evenodd" clip-rule="evenodd" d="M35 143C36.6569 143 38 144.343 38 146L38 393C38 394.657 36.6568 396 35 396C33.3431 396 32 394.657 32 393L32 146C32 144.343 33.3431 143 35 143Z" fill="black"/>
<path fill-rule="evenodd" clip-rule="evenodd" d="M139 143C140.657 143 142 144.343 142 146L142 393C142 394.657 140.657 396 139 396C137.343 396 136 394.657 136 393L136 146C136 144.343 137.343 143 139 143Z" fill="black"/>
<path opacity="0.6" fill-rule="evenodd" clip-rule="evenodd" d="M87 143C88.6569 143 90 144.343 90 146L90 393C90 394.657 88.6568 396 87 396C85.3431 396 84 394.657 84 393L84 146C84 144.343 85.3431 143 87 143Z" fill="black"/>
<path fill-rule="evenodd" clip-rule="evenodd" d="M191 142C192.657 142 194 143.343 194 145L194 399C194 400.657 192.657 402 191 402C189.343 402 188 400.657 188 399L188 145C188 143.343 189.343 142 191 142Z" fill="black"/>
<path opacity="0.4" fill-rule="evenodd" clip-rule="evenodd" d="M61 143C62.6569 143 64 144.343 64 146L64 393C64 394.657 62.6568 396 61 396C59.3431 396 58 394.657 58 393L58 146C58 144.343 59.3431 143 61 143Z" fill="black"/>
<path fill-rule="evenodd" clip-rule="evenodd" d="M165 143C166.657 143 168 144.343 168 146L168 400C168 401.657 166.657 403 165 403C163.343 403 162 401.657 162 400L162 146C162 144.343 163.343 143 165 143Z" fill="black"/>
<path opacity="0.8" fill-rule="evenodd" clip-rule="evenodd" d="M113 143C114.657 143 116 144.343 116 146L116 393C116 394.657 114.657 396 113 396C111.343 396 110 394.657 110 393L110 146C110 144.343 111.343 143 113 143Z" fill="black"/>
<path fill-rule="evenodd" clip-rule="evenodd" d="M217 140C218.657 140 220 141.343 220 143L220 397C220 398.657 218.657 400 217 400C215.343 400 214 398.657 214 397L214 143C214 141.343 215.343 140 217 140Z" fill="black"/>
<path fill-rule="evenodd" clip-rule="evenodd" d="M590 121C588.343 121 587 122.343 587 124L587 378C587 379.657 588.343 381 590 381C591.657 381 593 379.657 593 378L593 124C593 122.343 591.657 121 590 121Z" fill="black"/>
<path fill-rule="evenodd" clip-rule="evenodd" d="M603 121C601.343 121 600 122.343 600 124L600 378C600 379.657 601.343 381 603 381C604.657 381 606 379.657 606 378L606 124C606 122.343 604.657 121 603 121Z" fill="black"/>
<path opacity="0.8" fill-rule="evenodd" clip-rule="evenodd" d="M629 121C627.343 121 626 122.343 626 124L626 384C626 385.657 627.343 387 629 387C630.657 387 632 385.657 632 384L632 124C632 122.343 630.657 121 629 121Z" fill="black"/>
<path opacity="0.4" fill-rule="evenodd" clip-rule="evenodd" d="M681 121C679.343 121 678 122.343 678 124L678 384C678 385.657 679.343 387 681 387C682.657 387 684 385.657 684 384L684 124C684 122.343 682.657 121 681 121Z" fill="black"/>
<path opacity="0.6" fill-rule="evenodd" clip-rule="evenodd" d="M655 121C653.343 121 652 122.343 652 124L652 384C652 385.657 653.343 387 655 387C656.657 387 658 385.657 658 384L658 124C658 122.343 656.657 121 655 121Z" fill="black"/>
<path opacity="0.2" fill-rule="evenodd" clip-rule="evenodd" d="M707 121C705.343 121 704 122.343 704 124L704 384C704 385.657 705.343 387 707 387C708.657 387 710 385.657 710 384L710 124C710 122.343 708.657 121 707 121Z" fill="black"/>
<path opacity="0.9" fill-rule="evenodd" clip-rule="evenodd" d="M616 121C614.343 121 613 122.343 613 124L613 384C613 385.657 614.343 387 616 387C617.657 387 619 385.657 619 384L619 124C619 122.343 617.657 121 616 121Z" fill="black"/>
<path opacity="0.7" fill-rule="evenodd" clip-rule="evenodd" d="M642 121C640.343 121 639 122.343 639 124L639 384C639 385.657 640.343 387 642 387C643.657 387 645 385.657 645 384L645 124C645 122.343 643.657 121 642 121Z" fill="black"/>
<path opacity="0.3" fill-rule="evenodd" clip-rule="evenodd" d="M694 121C692.343 121 691 122.343 691 124L691 384C691 385.657 692.343 387 694 387C695.657 387 697 385.657 697 384L697 124C697 122.343 695.657 121 694 121Z" fill="black"/>
<path opacity="0.5" fill-rule="evenodd" clip-rule="evenodd" d="M668 121C666.343 121 665 122.343 665 124L665 384C665 385.657 666.343 387 668 387C669.657 387 671 385.657 671 384L671 124C671 122.343 669.657 121 668 121Z" fill="black"/>
<path opacity="0.1" fill-rule="evenodd" clip-rule="evenodd" d="M720 121C718.343 121 717 122.343 717 124L717 384C717 385.657 718.343 387 720 387C721.657 387 723 385.657 723 384L723 124C723 122.343 721.657 121 720 121Z" fill="black"/>
<path fill-rule="evenodd" clip-rule="evenodd" d="M243 135C244.657 135 246 136.343 246 138L246 392C246 393.657 244.657 395 243 395C241.343 395 240 393.657 240 392L240 138C240 136.343 241.343 135 243 135Z" fill="black"/>
<path fill-rule="evenodd" clip-rule="evenodd" d="M564 121C562.343 121 561 122.343 561 124L561 378C561 379.657 562.343 381 564 381C565.657 381 567 379.657 567 378L567 124C567 122.343 565.657 121 564 121Z" fill="black"/>
<path fill-rule="evenodd" clip-rule="evenodd" d="M256 131C257.657 131 259 132.343 259 134L259 388C259 389.657 257.657 391 256 391C254.343 391 253 389.657 253 388L253 134C253 132.343 254.343 131 256 131Z" fill="black"/>
<path fill-rule="evenodd" clip-rule="evenodd" d="M551 121C549.343 121 548 122.343 548 124L548 378C548 379.657 549.343 381 551 381C552.657 381 554 379.657 554 378L554 124C554 122.343 552.657 121 551 121Z" fill="black"/>
<path fill-rule="evenodd" clip-rule="evenodd" d="M269 127C270.657 127 272 128.343 272 130L272 384C272 385.657 270.657 387 269 387C267.343 387 266 385.657 266 384L266 130C266 128.343 267.343 127 269 127Z" fill="black"/>
<path fill-rule="evenodd" clip-rule="evenodd" d="M538 119C536.343 119 535 120.343 535 122L535 376C535 377.657 536.343 379 538 379C539.657 379 541 377.657 541 376L541 122C541 120.343 539.657 119 538 119Z" fill="black"/>
<path fill-rule="evenodd" clip-rule="evenodd" d="M282 121C283.657 121 285 122.343 285 124L285 378C285 379.657 283.657 381 282 381C280.343 381 279 379.657 279 378L279 124C279 122.343 280.343 121 282 121Z" fill="black"/>
<path fill-rule="evenodd" clip-rule="evenodd" d="M525 116C523.343 116 522 117.343 522 119L522 373C522 374.657 523.343 376 525 376C526.657 376 528 374.657 528 373L528 119C528 117.343 526.657 116 525 116Z" fill="black"/>
<path fill-rule="evenodd" clip-rule="evenodd" d="M295 114C296.657 114 298 115.343 298 117L298 371C298 372.657 296.657 374 295 374C293.343 374 292 372.657 292 371L292 117C292 115.343 293.343 114 295 114Z" fill="black"/>
<path fill-rule="evenodd" clip-rule="evenodd" d="M512 112C510.343 112 509 113.343 509 115L509 369C509 370.657 510.343 372 512 372C513.657 372 515 370.657 515 369L515 115C515 113.343 513.657 112 512 112Z" fill="black"/>
<path fill-rule="evenodd" clip-rule="evenodd" d="M308 108C309.657 108 311 109.343 311 111L311 365C311 366.657 309.657 368 308 368C306.343 368 305 366.657 305 365L305 111C305 109.343 306.343 108 308 108Z" fill="black"/>
<path fill-rule="evenodd" clip-rule="evenodd" d="M499 108C497.343 108 496 109.343 496 111L496 365C496 366.657 497.343 368 499 368C500.657 368 502 366.657 502 365L502 111C502 109.343 500.657 108 499 108Z" fill="black"/>
<path fill-rule="evenodd" clip-rule="evenodd" d="M321 101C322.657 101 324 102.343 324 104L324 358C324 359.657 322.657 361 321 361C319.343 361 318 359.657 318 358L318 104C318 102.343 319.343 101 321 101Z" fill="black"/>
<path fill-rule="evenodd" clip-rule="evenodd" d="M486 103C484.343 103 483 104.343 483 106L483 360C483 361.657 484.343 363 486 363C487.657 363 489 361.657 489 360L489 106C489 104.343 487.657 103 486 103Z" fill="black"/>
<path fill-rule="evenodd" clip-rule="evenodd" d="M334 93C335.657 93 337 94.3431 337 96L337 350C337 351.657 335.657 353 334 353C332.343 353 331 351.657 331 350L331 96C331 94.3431 332.343 93 334 93Z" fill="black"/>
<path fill-rule="evenodd" clip-rule="evenodd" d="M473 98C471.343 98 470 99.3431 470 101L470 355C470 356.657 471.343 358 473 358C474.657 358 476 356.657 476 355L476 101C476 99.3431 474.657 98 473 98Z" fill="black"/>
<path fill-rule="evenodd" clip-rule="evenodd" d="M347 84C348.657 84 350 85.3431 350 87L350 341C350 342.657 348.657 344 347 344C345.343 344 344 342.657 344 341L344 87C344 85.3431 345.343 84 347 84Z" fill="black"/>
<path fill-rule="evenodd" clip-rule="evenodd" d="M460 92C458.343 92 457 93.3431 457 95L457 349C457 350.657 458.343 352 460 352C461.657 352 463 350.657 463 349L463 95C463 93.3431 461.657 92 460 92Z" fill="black"/>
<path fill-rule="evenodd" clip-rule="evenodd" d="M359 74C360.657 74 362 75.3431 362 77L362 331C362 332.657 360.657 334 359 334C357.343 334 356 332.657 356 331L356 77C356 75.3431 357.343 74 359 74Z" fill="black"/>
<path fill-rule="evenodd" clip-rule="evenodd" d="M448 84C446.343 84 445 85.3431 445 87L445 341C445 342.657 446.343 344 448 344C449.657 344 451 342.657 451 341L451 87C451 85.3431 449.657 84 448 84Z" fill="black"/>
<path fill-rule="evenodd" clip-rule="evenodd" d="M371 64C372.657 64 374 65.3431 374 67L374 321C374 322.657 372.657 324 371 324C369.343 324 368 322.657 368 321L368 67C368 65.3431 369.343 64 371 64Z" fill="black"/>
<path fill-rule="evenodd" clip-rule="evenodd" d="M436 75C434.343 75 433 76.3431 433 78L433 332C433 333.657 434.343 335 436 335C437.657 335 439 333.657 439 332L439 78C439 76.3431 437.657 75 436 75Z" fill="black"/>
<path fill-rule="evenodd" clip-rule="evenodd" d="M384 54C385.657 54 387 55.3431 387 57L387 311C387 312.657 385.657 314 384 314C382.343 314 381 312.657 381 311L381 57C381 55.3431 382.343 54 384 54Z" fill="black"/>
<path fill-rule="evenodd" clip-rule="evenodd" d="M423 67C421.343 67 420 68.3431 420 70L420 324C420 325.657 421.343 327 423 327C424.657 327 426 325.657 426 324L426 70C426 68.3431 424.657 67 423 67Z" fill="black"/>
<path fill-rule="evenodd" clip-rule="evenodd" d="M397 45C398.657 45 400 46.3431 400 48L400 302C400 303.657 398.657 305 397 305C395.343 305 394 303.657 394 302L394 48C394 46.3431 395.343 45 397 45Z" fill="black"/>
<path fill-rule="evenodd" clip-rule="evenodd" d="M410 53.0001C408.343 53.0001 407 54.3433 407 56.0001L407 310C407 311.657 408.343 313 410 313C411.657 313 413 311.657 413 310L413 56C413 54.3431 411.657 53 410 53.0001Z" fill="black"/>
</g>
<defs>
<clipPath id="clip0_1_2">
<rect width="746" height="175" fill="white"/>
</clipPath>
</defs>
</svg>
